# xmcd CD database file
#
# Track frame offsets:
#	150
#	4005
#	18443
#	37088
#	56170
#	68132
#	87398
#	107289
#	123848
#	141278
#	156697
#	172429
#	197459
#	216424
#	231036
#
# Disc length: 3230 seconds
#
# Revision: 2
# Processed by: cddbd v1.5PL3 Copyright (c) Steve Scherf et al.
# Submitted via: CDex 1.51
#
DISCID=d80c9c0f
DTITLE=Gündogarken - Istanbul Atina Istanbul
DYEAR=2000
DGENRE=Other
TTITLE0=Keman Taksimi
TTITLE1=Agliyor Istanbul
TTITLE2=Ellerimde Çiçekler
TTITLE3=Baglar
TTITLE4=Yanima Gel
TTITLE5=Bin Defa Dedim
TTITLE6=Sicaklardandir
TTITLE7=Ask Için
TTITLE8=Temenni
TTITLE9=Üç Otuzluk Ask
TTITLE10=Gördügüme Sevindim
TTITLE11=Pismanim
TTITLE12=Mucize
TTITLE13=Di Gel Yanima
TTITLE14=Istanbul Atina Istanbul
EXTD=YEAR: 2000
EXTT0=
EXTT1=
EXTT2=
EXTT3=
EXTT4=
EXTT5=
EXTT6=
EXTT7=
EXTT8=
EXTT9=
EXTT10=
EXTT11=
EXTT12=
EXTT13=
EXTT14=
PLAYORDER=
